<svg width="200" height="382" viewBox="0 0 200 382" fill="none" xmlns="http://www.w3.org/2000/svg">
<path fill-rule="evenodd" clip-rule="evenodd" d="M19.7128 -28.9917C70.5277 -28.7078 125.25 -17.5802 160.45 19.0812C193.811 53.8265 191.054 107.486 196.689 155.331C201.206 193.681 202.906 231.814 189.783 268.129C176.994 303.521 155.979 336.614 124.011 356.452C93.317 375.499 55.7434 371.128 19.7128 373.668C-19.6788 376.445 -61.7654 391.912 -95.8433 371.953C-130.81 351.473 -149.657 310.131 -156.869 270.246C-163.541 233.352 -138.726 200.157 -133.626 163.013C-126.843 113.603 -153.292 56.4687 -122.172 17.5019C-90.3296 -22.3698 -31.3027 -29.2768 19.7128 -28.9917Z" fill="#EACE09" fill-opacity="0.5"/>
</svg>
