<svg width="364" height="255" viewBox="0 0 364 255" fill="none" xmlns="http://www.w3.org/2000/svg">
<path fill-rule="evenodd" clip-rule="evenodd" d="M350.796 7.67323C404.404 14.6042 457.685 25.7326 500.545 58.6693C542.621 91.0029 567.895 138.477 585.946 188.377C604.559 239.83 619.884 294.724 604.984 347.372C589.772 401.119 543.361 436.198 504.462 476.284C456.097 526.125 420.184 606.391 350.796 609.315C281.66 612.229 234.513 540.35 187.422 489.646C148.638 447.887 132.414 394.608 104.988 344.649C68.9521 279.007 -12.8175 224.818 1.71053 151.357C16.0301 78.95 101.743 44.0261 169.997 15.9328C227.185 -7.60569 289.464 -0.256382 350.796 7.67323Z" fill="#060678" fill-opacity="0.5"/>
</svg>
