<svg width="124" height="111" viewBox="0 0 124 111" fill="none" xmlns="http://www.w3.org/2000/svg">
<g clip-path="url(#clip0)">
<path d="M0.694847 24.9072C0.452036 24.9756 0.246226 25.1375 0.122568 25.3574C-0.0010907 25.5774 -0.0325022 25.8375 0.0352251 26.0806L15.94 82.9125C16.0083 83.1554 16.1701 83.3614 16.3899 83.4851C16.6098 83.6088 16.8697 83.6402 17.1126 83.5725L75.7456 67.1458C75.9884 67.0774 76.1942 66.9155 76.3179 66.6956C76.4415 66.4756 76.473 66.2156 76.4052 65.9725L60.5005 9.14054C60.4322 8.89759 60.2704 8.69167 60.0505 8.56795C59.8307 8.44422 59.5708 8.41279 59.3278 8.48055L0.694847 24.9072Z" fill="#E6E6E6"/>
<path d="M17.8495 80.8888L73.723 65.2352L58.5909 11.1642L2.71741 26.8178L17.8495 80.8888Z" fill="white"/>
<path d="M10.1046 34.0379C9.73185 34.1423 9.57815 34.7619 9.76203 35.4189C9.94591 36.0759 10.3988 36.5256 10.7716 36.4211L36.2547 29.2818C36.6275 29.1773 36.7811 28.5578 36.5973 27.9007C36.4134 27.2437 35.9605 26.7941 35.5877 26.8985L10.1046 34.0379Z" fill="#E6E6E6"/>
<path d="M12.1567 41.371C11.784 41.4754 11.6303 42.095 11.8142 42.752C11.998 43.4091 12.4509 43.8587 12.8237 43.7543L38.3068 36.6149C38.6796 36.5104 38.8333 35.8909 38.6494 35.2338C38.4655 34.5768 38.0126 34.1272 37.6398 34.2316L12.1567 41.371Z" fill="#E6E6E6"/>
<path d="M14.1854 48.6196C13.8127 48.7241 13.659 49.3436 13.8428 50.0007C14.0267 50.6577 14.4796 51.1073 14.8524 51.0029L40.3355 43.8635C40.7083 43.7591 40.862 43.1395 40.6781 42.4825C40.4942 41.8255 40.0413 41.3758 39.6685 41.4803L14.1854 48.6196Z" fill="#E6E6E6"/>
<path d="M16.2376 55.9527C15.8648 56.0571 15.7111 56.6766 15.895 57.3337C16.0788 57.9907 16.5318 58.4403 16.9045 58.3359L42.3876 51.1965C42.7604 51.0921 42.9141 50.4726 42.7302 49.8155C42.5463 49.1585 42.0934 48.7089 41.7207 48.8133L16.2376 55.9527Z" fill="#E6E6E6"/>
<path d="M48.52 23.3599C48.3635 23.4035 48.217 23.4777 48.0891 23.578C47.9612 23.6783 47.8543 23.8029 47.7745 23.9446C47.6948 24.0863 47.6437 24.2423 47.6242 24.4038C47.6048 24.5653 47.6173 24.729 47.6612 24.8856C47.705 25.0422 47.7792 25.1886 47.8797 25.3165C47.9801 25.4443 48.1047 25.5512 48.2464 25.6308C48.3881 25.7104 48.5441 25.7614 48.7055 25.7806C48.8669 25.7999 49.0305 25.7872 49.187 25.7431L53.9509 24.4085C54.2668 24.32 54.5346 24.1096 54.6954 23.8235C54.8562 23.5375 54.8969 23.1992 54.8084 22.8832C54.72 22.5671 54.5097 22.2992 54.2238 22.1383C53.9379 21.9774 53.5998 21.9367 53.284 22.0252L48.52 23.3599Z" fill="#E6E6E6"/>
<path d="M50.5325 30.5508C50.3759 30.5945 50.2295 30.6686 50.1016 30.7689C49.9737 30.8692 49.8668 30.9938 49.787 31.1355C49.7072 31.2772 49.6561 31.4332 49.6367 31.5947C49.6172 31.7562 49.6298 31.9199 49.6736 32.0765C49.7174 32.2331 49.7917 32.3795 49.8921 32.5074C49.9925 32.6352 50.1172 32.7421 50.2589 32.8217C50.4006 32.9014 50.5566 32.9523 50.718 32.9715C50.8794 32.9908 51.043 32.9781 51.1995 32.934L55.9634 31.5994C56.2793 31.5109 56.5471 31.3005 56.7079 31.0144C56.8687 30.7284 56.9093 30.3901 56.8209 30.0741C56.7325 29.758 56.5221 29.4901 56.2363 29.3292C55.9504 29.1683 55.6123 29.1276 55.2964 29.2161L50.5325 30.5508Z" fill="#E6E6E6"/>
<path d="M52.545 37.7418C52.3886 37.7857 52.2424 37.8599 52.1146 37.9602C51.9869 38.0606 51.8802 38.1852 51.8005 38.3268C51.7209 38.4684 51.67 38.6244 51.6506 38.7857C51.6312 38.9471 51.6437 39.1106 51.6875 39.2671C51.7313 39.4236 51.8055 39.57 51.9058 39.6978C52.0061 39.8256 52.1306 39.9324 52.2722 40.012C52.4137 40.0917 52.5696 40.1427 52.7308 40.1621C52.8921 40.1815 53.0556 40.1689 53.212 40.1251L57.9759 38.7904C58.2918 38.7019 58.5596 38.4915 58.7204 38.2055C58.8812 37.9194 58.9219 37.5812 58.8334 37.2651C58.745 36.9491 58.5347 36.6811 58.2488 36.5202C57.9629 36.3593 57.6248 36.3187 57.309 36.4072L52.545 37.7418Z" fill="#E6E6E6"/>
<path d="M54.5573 44.9329C54.2418 45.0217 53.9744 45.2321 53.8139 45.5181C53.6534 45.804 53.6128 46.142 53.7012 46.4578C53.7896 46.7736 53.9996 47.0414 54.2852 47.2023C54.5708 47.3633 54.9086 47.4042 55.2243 47.3161L59.9882 45.9815C60.3038 45.8927 60.5712 45.6822 60.7317 45.3963C60.8922 45.1103 60.9328 44.7723 60.8444 44.4565C60.756 44.1407 60.5459 43.8729 60.2604 43.712C59.9748 43.5511 59.637 43.5101 59.3213 43.5982L54.5573 44.9329Z" fill="#E6E6E6"/>
<path d="M56.4801 57.3972C56.2806 57.4529 56.094 57.5473 55.9311 57.6752C55.7681 57.803 55.6319 57.9618 55.5302 58.1423C55.4286 58.3229 55.3635 58.5217 55.3387 58.7274C55.3139 58.9332 55.3299 59.1418 55.3858 59.3413C55.4416 59.5408 55.5362 59.7274 55.6642 59.8904C55.7921 60.0533 55.9509 60.1894 56.1315 60.2909C56.3121 60.3924 56.5109 60.4573 56.7165 60.4818C56.9222 60.5064 57.1306 60.4901 57.33 60.434L63.4002 58.7334C63.8027 58.6206 64.144 58.3525 64.3489 57.988C64.5538 57.6235 64.6056 57.1925 64.4929 56.7898C64.3802 56.3871 64.1122 56.0457 63.7479 55.8407C63.3836 55.6357 62.9529 55.5838 62.5504 55.6966L56.4801 57.3972Z" fill="#F7A725"/>
<path d="M62.7274 51.2642L17.8082 63.8488L17.92 64.2483L62.8392 51.6637L62.7274 51.2642Z" fill="#E6E6E6"/>
<path d="M107.848 104.976L104.245 105.847L99.1716 92.3586L104.489 91.0725L107.848 104.976Z" fill="#A0616A"/>
<path d="M98.03 111L98.0056 110.899C97.72 109.712 97.917 108.459 98.5531 107.417C99.1893 106.375 100.213 105.627 101.399 105.339L108.447 103.634L109.554 108.213L98.03 111Z" fill="#2F2E41"/>
<path d="M91.8997 107.431L88.1934 107.431L86.4302 93.1274L91.9003 93.1277L91.8997 107.431Z" fill="#A0616A"/>
<path d="M92.7975 110.979L80.9417 110.978V110.874C80.9417 109.653 81.4268 108.481 82.2902 107.617C83.1537 106.753 84.3248 106.268 85.5458 106.268H85.5461L92.7977 106.268L92.7975 110.979Z" fill="#2F2E41"/>
<path d="M86.4271 101.847L82.8285 58.9354L97.7256 56.188L97.7845 56.1774L102.145 58.9818L100.627 74.7745L107.615 99.3964L101.581 100.985L94.5825 78.1496L92.9809 71.2055L92.16 80.2289L92.7694 102.482L86.4271 101.847Z" fill="#2F2E41"/>
<path d="M82.3672 59.9088L82.3278 59.8589L87.4756 21.0779L87.4823 21.0271L87.5185 20.9907C87.5944 20.9148 89.398 19.1315 91.2532 19.1315C91.5214 19.1315 91.7764 19.1247 92.021 19.1185C93.4407 19.0816 94.5621 19.0521 95.8949 20.3858C97.2528 21.7443 101.683 26.7051 101.683 33.4995C101.683 40.0758 102.282 60.5129 102.288 60.7185L102.296 61.0071L102.054 60.8496C101.995 60.8112 96.0357 57.0148 91.0381 60.5439C89.4763 61.6469 88.0733 62.0336 86.8736 62.0336C84.0814 62.0336 82.391 59.9392 82.3672 59.9088Z" fill="#F7A725"/>
<path d="M94.0269 15.9316C97.6252 13.9635 98.9476 9.44946 96.9806 5.84919C95.0136 2.24893 90.502 0.925777 86.9037 2.89386C83.3054 4.86195 81.983 9.37599 83.95 12.9763C85.917 16.5765 90.4286 17.8997 94.0269 15.9316Z" fill="#A0616A"/>
<path d="M79.0985 68.2431C79.4498 67.9707 79.7371 67.6246 79.9402 67.2291C80.1433 66.8336 80.2573 66.3983 80.2742 65.954C80.291 65.5096 80.2102 65.067 80.0375 64.6572C79.8649 64.2475 79.6045 63.8806 79.2748 63.5824L83.4916 53.6306L77.9704 54.6473L74.8125 63.9418C74.3486 64.5292 74.1161 65.2665 74.1591 66.0139C74.2021 66.7613 74.5177 67.467 75.046 67.9972C75.5743 68.5274 76.2786 68.8453 77.0255 68.8906C77.7724 68.9359 78.51 68.7056 79.0984 68.2431H79.0985Z" fill="#A0616A"/>
<path d="M75.0245 60.5019L76.3824 57.6337C76.2985 57.5832 76.2293 57.5114 76.1818 57.4257C74.9132 55.2259 82.5761 36.9579 83.0869 35.7462C83.009 35.0872 82.2046 28.1035 82.7928 25.7495C83.4852 22.9784 84.9069 21.687 87.5465 21.4312C90.4576 21.1576 91.243 25.1129 91.2505 25.1531L91.2532 35.3214L87.9122 47.0264L80.2929 62.5783L75.0245 60.5019Z" fill="#F7A725"/>
<path d="M91.4147 12.2117C90.5246 12.3276 89.8532 11.4164 89.5418 10.5741C89.2303 9.73179 88.9931 8.75117 88.2192 8.29617C87.1619 7.67455 85.8091 8.42219 84.6001 8.2171C83.2347 7.98549 82.3469 6.53764 82.2773 5.15374C82.2078 3.76984 82.7582 2.43884 83.2983 1.1629L83.4868 2.7486C83.4616 2.21117 83.5746 1.67625 83.8151 1.19501C84.0555 0.713777 84.4154 0.302321 84.8602 0L84.6172 2.32677C84.7695 1.02326 86.1731 0.0132074 87.4567 0.283336L87.4184 1.66971C88.9955 1.48208 90.5863 1.29419 92.168 1.43713C93.7497 1.58008 95.3425 2.0808 96.5413 3.12304C98.3345 4.68208 98.9894 7.24922 98.7695 9.61594C98.5497 11.9827 97.5732 14.206 96.5555 16.3538C96.2995 16.8942 95.9453 17.504 95.3516 17.5728C94.8181 17.6347 94.33 17.1885 94.1641 16.6774C93.9983 16.1663 94.0792 15.6111 94.1785 15.083C94.3286 14.2853 94.5177 13.4699 94.3766 12.6705C94.2356 11.8711 93.6608 11.0812 92.8555 10.9832C92.0501 10.8853 91.226 11.8063 91.6132 12.5197L91.4147 12.2117Z" fill="#2F2E41"/>
<path d="M123.921 110.995H70.4867V110.559H124L123.921 110.995Z" fill="#3F3D56"/>
</g>
<defs>
<clipPath id="clip0">
<rect width="124" height="111" fill="white"/>
</clipPath>
</defs>
</svg>
