<svg width="163" height="131" viewBox="0 0 163 131" fill="none" xmlns="http://www.w3.org/2000/svg">
<g clip-path="url(#clip0)">
<path d="M82.468 131C126.945 131 163 128.19 163 124.724C163 121.258 126.945 118.448 82.468 118.448C37.9913 118.448 1.93591 121.258 1.93591 124.724C1.93591 128.19 37.9913 131 82.468 131Z" fill="#3F3D56"/>
<path d="M150.875 113.065L151.63 118.586L146.347 119.088L147.101 112.312L150.875 113.065Z" fill="#A0616A"/>
<path d="M125.967 37.27C125.967 37.27 126.47 44.0463 126.47 44.2973C126.47 44.5483 122.948 61.8656 122.948 61.8656C122.948 61.8656 117.916 71.4027 122.948 71.1518C127.98 70.9008 126.47 62.1166 126.47 62.1166L131.754 47.56L129.49 37.27L125.967 37.27Z" fill="#A0616A"/>
<path d="M134.27 113.065L133.515 118.586L138.799 119.088L138.044 112.312L134.27 113.065Z" fill="#A0616A"/>
<path d="M128.483 61.3638L127.225 63.1206C127.225 63.1206 126.47 70.6499 127.225 73.1597C127.98 75.6694 129.49 87.2143 129.49 87.9673C129.49 88.7202 129.741 89.2221 129.49 89.4731C129.238 89.7241 128.483 89.7241 128.986 90.2261C129.489 90.728 129.49 92.2339 129.49 92.2339V93.4887L132.76 112.061C132.76 112.061 130.747 114.32 132.257 114.32C133.767 114.32 139.302 114.32 139.05 111.81L138.547 111.559C138.547 111.559 137.792 94.9946 138.044 94.2417C138.295 93.4888 138.044 91.9829 138.044 91.9829C138.044 91.9829 137.541 91.23 138.044 90.979C138.547 90.728 138.547 88.7202 138.547 88.7202L140.811 73.4106C140.811 73.4106 142.824 83.7007 144.082 84.7046C145.34 85.7085 145.089 88.2182 145.089 88.2182L146.095 110.304C146.095 110.304 145.089 112.814 146.095 113.316C147.101 113.818 151.379 115.575 151.63 113.065C151.882 110.555 153.14 88.7202 153.14 87.7163C153.14 86.7124 152.888 86.2104 153.14 85.4575C153.391 84.7046 152.888 84.7046 153.14 84.7046C153.391 84.7046 152.637 83.9516 152.637 83.4497V71.1518C152.637 71.1518 152.888 68.6421 153.14 68.1401C153.391 67.6382 152.888 67.1362 153.14 66.3833C153.391 65.6304 152.637 63.1206 152.637 63.1206L141.315 60.1089L128.483 61.3638Z" fill="#2F2E41"/>
<path d="M137.289 117.582C137.289 117.582 138.547 116.328 136.786 116.328C135.655 116.351 134.542 116.607 133.515 117.081L132.257 121.598C132.257 121.598 127.099 125.739 132.886 125.237C138.673 124.735 137.792 125.112 137.792 125.112C137.792 125.112 139.553 124.61 139.805 124.108C140.057 123.606 139.302 116.328 139.302 116.328C139.302 116.328 138.547 118.335 137.289 117.582Z" fill="#2F2E41"/>
<path d="M148.108 117.582C148.108 117.582 146.85 116.328 148.611 116.328C149.742 116.351 150.855 116.607 151.882 117.081L153.14 121.598C153.14 121.598 158.298 125.739 152.511 125.237C146.724 124.735 146.85 125.112 146.85 125.112C146.85 125.112 145.089 124.61 144.837 124.108C144.585 123.606 146.095 116.328 146.095 116.328C146.095 116.328 146.85 118.335 148.108 117.582Z" fill="#2F2E41"/>
<path d="M131.754 17.4429C135.367 17.4429 138.296 14.5213 138.296 10.9175C138.296 7.3136 135.367 4.39209 131.754 4.39209C128.141 4.39209 125.212 7.3136 125.212 10.9175C125.212 14.5213 128.141 17.4429 131.754 17.4429Z" fill="#A0616A"/>
<path d="M129.49 15.686C129.49 15.686 130.496 20.7056 130.496 21.4585C130.496 22.2114 134.773 24.4702 134.773 24.4702L139.553 18.4468C139.553 18.4468 136.534 14.1802 136.534 13.1763L129.49 15.686Z" fill="#A0616A"/>
<path d="M133.264 22.2114C133.264 22.2114 131.071 21.6292 130.406 20.6654C130.406 20.6654 123.451 27.4819 123.451 28.7368L128.986 38.5249C128.986 38.5249 128.986 42.0385 129.49 42.2895C129.993 42.5405 129.49 42.2895 129.49 43.2934C129.49 44.2973 127.98 50.8227 128.483 51.8266C128.986 52.8305 129.49 52.0776 128.986 53.5835C128.483 55.0893 127.225 63.1206 127.225 63.1206C127.225 63.1206 131.754 61.6147 138.295 64.1245C144.837 66.6342 152.637 63.1206 152.637 63.1206C152.637 63.1206 150.624 58.603 151.127 57.0971C151.63 55.5913 149.869 52.8305 149.869 52.8305L148.611 29.7407C148.611 29.7407 150.372 19.4507 149.114 18.9487L146.598 17.9448L138.541 16.957C138.541 16.957 136.534 21.9604 133.264 22.2114Z" fill="#D0CDE1"/>
<path d="M125.967 26.98L123.451 28.7368C123.451 28.7368 122.193 32.5015 123.451 34.2583C124.709 36.0151 125.212 38.5249 125.212 38.5249L130.244 38.0229L125.967 26.98Z" fill="#D0CDE1"/>
<path d="M126.759 4.02126L125.625 3.5681C125.625 3.5681 127.997 0.962494 131.298 1.18907L130.37 0.169473C130.37 0.169473 132.639 -0.736818 134.702 1.64221C135.787 2.89282 137.042 4.36283 137.824 6.01879H139.039L138.532 7.13279L140.307 8.24678L138.485 8.04668C138.658 9.00842 138.599 9.9973 138.313 10.9318L138.362 11.8123C138.362 11.8123 136.25 8.55275 136.25 8.0996V9.23247C136.25 9.23247 135.115 8.21289 135.115 7.53316L134.496 8.32618L134.187 7.08001L130.37 8.32618L130.989 7.3066L128.616 7.64646L129.545 6.4003C129.545 6.4003 126.863 7.87304 126.759 9.11921C126.656 10.3654 125.315 11.9514 125.315 11.9514L124.696 10.8185C124.696 10.8185 123.768 5.72056 126.759 4.02126Z" fill="#2F2E41"/>
<path d="M128.277 54.6171H28.2964V124.676H128.277V54.6171Z" fill="#F2F2F2"/>
<path d="M61.8167 81.348H36.7128V125.063H61.8167V81.348Z" fill="#3F3D56"/>
<path d="M48.1185 83.9705H41.3562V90.2588H48.1185V83.9705Z" fill="#F2F2F2"/>
<path d="M57.1732 83.9705H50.4109V90.2588H57.1732V83.9705Z" fill="#F2F2F2"/>
<path d="M48.1185 92.5454H41.3562V99.0623H48.1185V92.5454Z" fill="#F2F2F2"/>
<path d="M57.1732 92.5454H50.4109V99.0623H57.1732V92.5454Z" fill="#F2F2F2"/>
<path d="M58.6243 107.741C59.5058 107.741 60.2205 107.028 60.2205 106.148C60.2205 105.269 59.5058 104.556 58.6243 104.556C57.7427 104.556 57.0281 105.269 57.0281 106.148C57.0281 107.028 57.7427 107.741 58.6243 107.741Z" fill="#F7A725"/>
<path d="M119.86 77.1982H70.233V118.742H119.86V77.1982Z" fill="#3F3D56"/>
<path d="M138.725 67.8068H17.8485L25.9079 50.9983L27.7116 47.2348L30.0712 42.3133L31.8748 38.5498L33.9658 34.19H129.201L130.436 38.5498L131.502 42.3133L132.897 47.2348L133.964 50.9983L138.725 67.8068Z" fill="#3F3D56"/>
<path d="M73.7157 94.4236H71.9744V105.135H73.7157V94.4236Z" fill="#F7A725"/>
<path d="M73.7157 96.0158H71.9744V97.3186H73.7157V96.0158Z" fill="#F2F2F2"/>
<path d="M73.7157 102.24H71.9744V103.543H73.7157V102.24Z" fill="#F2F2F2"/>
<path d="M78.7945 94.4236H74.5863V105.135H78.7945V94.4236Z" fill="#F7A725"/>
<path d="M78.7945 96.0158H74.5863V97.3186H78.7945V96.0158Z" fill="#F2F2F2"/>
<path d="M78.7945 102.24H74.5863V103.543H78.7945V102.24Z" fill="#F2F2F2"/>
<path d="M81.5515 94.4236H79.8102V105.135H81.5515V94.4236Z" fill="#F7A725"/>
<path d="M81.5515 96.0158H79.8102V97.3186H81.5515V96.0158Z" fill="#F2F2F2"/>
<path d="M81.5515 102.24H79.8102V103.543H81.5515V102.24Z" fill="#F2F2F2"/>
<path d="M84.1635 94.4236H82.4221V105.135H84.1635V94.4236Z" fill="#F7A725"/>
<path d="M84.1635 96.0158H82.4221V97.3186H84.1635V96.0158Z" fill="#F2F2F2"/>
<path d="M84.1635 102.24H82.4221V103.543H84.1635V102.24Z" fill="#F2F2F2"/>
<path d="M85.8414 94.4615L84.212 95.0742L87.9996 105.097L89.629 104.485L85.8414 94.4615Z" fill="#F7A725"/>
<path d="M86.4045 95.9514L84.7751 96.5641L85.2358 97.7831L86.8652 97.1704L86.4045 95.9514Z" fill="#F2F2F2"/>
<path d="M88.6054 101.776L86.976 102.388L87.4366 103.607L89.066 102.995L88.6054 101.776Z" fill="#F2F2F2"/>
<path d="M118.264 94.4236H114.056V105.135H118.264V94.4236Z" fill="#F7A725"/>
<path d="M118.264 96.0158H114.056V97.3186H118.264V96.0158Z" fill="#F2F2F2"/>
<path d="M118.264 102.24H114.056V103.543H118.264V102.24Z" fill="#F2F2F2"/>
<path d="M113.04 94.4236H111.299V105.135H113.04V94.4236Z" fill="#F7A725"/>
<path d="M113.04 96.0158H111.299V97.3186H113.04V96.0158Z" fill="#F2F2F2"/>
<path d="M113.04 102.24H111.299V103.543H113.04V102.24Z" fill="#F2F2F2"/>
<path d="M110.428 94.4236H108.687V105.135H110.428V94.4236Z" fill="#F7A725"/>
<path d="M110.428 96.0158H108.687V97.3186H110.428V96.0158Z" fill="#F2F2F2"/>
<path d="M110.428 102.24H108.687V103.543H110.428V102.24Z" fill="#F2F2F2"/>
<path d="M107.009 94.4615L103.221 104.485L104.851 105.097L108.638 95.0742L107.009 94.4615Z" fill="#F7A725"/>
<path d="M106.446 95.9514L105.985 97.1704L107.615 97.7831L108.075 96.5641L106.446 95.9514Z" fill="#F2F2F2"/>
<path d="M104.245 101.776L103.784 102.995L105.414 103.607L105.874 102.388L104.245 101.776Z" fill="#F2F2F2"/>
<path d="M119.86 105.135H70.233V106.148H119.86V105.135Z" fill="#F2F2F2"/>
<path d="M100.996 94.4236H91.8542V105.135H100.996V94.4236Z" fill="#F7A725"/>
<path d="M98.747 96.7396H94.1035V98.7661H98.747V96.7396Z" fill="#F2F2F2"/>
<path d="M95.482 77.1982H94.6113V86.4623H95.482V77.1982Z" fill="#F2F2F2"/>
<path d="M95.0467 87.9098C95.8481 87.9098 96.4977 87.2618 96.4977 86.4623C96.4977 85.6629 95.8481 85.0148 95.0467 85.0148C94.2453 85.0148 93.5956 85.6629 93.5956 86.4623C93.5956 87.2618 94.2453 87.9098 95.0467 87.9098Z" fill="#F2F2F2"/>
<path d="M131.502 42.3133H30.0712L31.8748 38.5498H130.436L131.502 42.3133Z" fill="#F7A725"/>
<path d="M133.963 50.9983H25.9078L27.7115 47.2348H132.897L133.963 50.9983Z" fill="#F7A725"/>
<path d="M144.586 29.2388C144.586 29.2388 143.129 32.976 143.433 36.6736C143.489 37.3356 143.712 37.9727 144.082 38.5249L126.233 46.9781C126.233 46.9781 118.168 47.811 120.18 51.3247C122.193 54.8384 129.49 49.5679 129.49 49.5679C129.49 49.5679 148.611 46.8071 150.121 44.0464C151.63 41.2856 152.637 29.7407 152.637 29.7407L144.586 29.2388Z" fill="#A0616A"/>
<path d="M145.34 18.9487H149.114C149.114 18.9487 151.882 19.4506 152.637 24.4702C153.391 29.4897 154.146 30.7446 153.391 30.7446C152.637 30.7446 143.579 30.4936 143.579 30.2426C143.579 29.9916 145.34 18.9487 145.34 18.9487Z" fill="#D0CDE1"/>
<path d="M19.3587 93.9233C30.0502 93.9233 38.7173 85.2775 38.7173 74.6125C38.7173 63.9474 30.0502 55.3016 19.3587 55.3016C8.66717 55.3016 0 63.9474 0 74.6125C0 85.2775 8.66717 93.9233 19.3587 93.9233Z" fill="#F7A725"/>
<path opacity="0.1" d="M19.3587 91.2197C28.5533 91.2197 36.0071 83.7844 36.0071 74.6124C36.0071 65.4405 28.5533 58.0051 19.3587 58.0051C10.164 58.0051 2.71021 65.4405 2.71021 74.6124C2.71021 83.7844 10.164 91.2197 19.3587 91.2197Z" fill="black"/>
<path d="M18.5609 84.4123V81.9951C17.336 81.9713 16.0688 81.5403 15.3297 80.9421L15.8365 79.3387C16.7149 79.9953 17.7801 80.3557 18.8777 80.3676C20.3771 80.3676 21.3908 79.3864 21.3908 78.0223C21.3908 76.706 20.5672 75.8924 19.0044 75.1744C16.8502 74.2171 15.5198 73.1162 15.5198 71.0342C15.5198 69.0477 16.7658 67.54 18.7088 67.1811V64.7639H20.0181V67.0854C20.9945 67.0987 21.9468 67.3892 22.7636 67.9229L22.2356 69.5025C21.4522 68.9676 20.5239 68.6837 19.5746 68.6888C17.9485 68.6888 17.336 69.7896 17.336 70.747C17.336 71.9914 18.1174 72.6136 19.9548 73.4753C22.13 74.4804 23.2282 75.7249 23.2282 77.8548C23.2282 79.7454 22.0666 81.5165 19.8914 81.9231V84.4123H18.5609Z" fill="#F2F2F2"/>
</g>
<defs>
<clipPath id="clip0">
<rect width="163" height="131" fill="white"/>
</clipPath>
</defs>
</svg>
